<svg width="14" height="15" viewBox="0 0 14 15" fill="none" xmlns="http://www.w3.org/2000/svg">
<g clip-path="url(#clip0)">
<path d="M12.3958 15H1.6042C0.719269 15 0 14.2294 0 13.2812V2.96873C0 2.02059 0.719269 1.25006 1.6042 1.25006H12.3958C13.2807 1.25006 14 2.02059 14 2.96873V13.2812C14 14.2294 13.2807 15 12.3958 15ZM1.6042 2.18756C1.20227 2.18756 0.875 2.53809 0.875 2.96873V13.2812C0.875 13.7119 1.20227 14.0625 1.6042 14.0625H12.3958C12.7977 14.0625 13.125 13.7119 13.125 13.2812V2.96873C13.125 2.53809 12.7977 2.18756 12.3958 2.18756H1.6042Z" fill="#48485E"/>
<path d="M13.5625 5.93756H0.4375C0.195999 5.93756 0 5.72756 0 5.46881C0 5.21006 0.195999 5.00006 0.4375 5.00006H13.5625C13.804 5.00006 14 5.21006 14 5.46881C14 5.72756 13.804 5.93756 13.5625 5.93756Z" fill="#48485E"/>
<path d="M3.3542 3.75C3.1127 3.75 2.9167 3.54 2.9167 3.28125V0.46875C2.9167 0.209999 3.1127 0 3.3542 0C3.5957 0 3.7917 0.209999 3.7917 0.46875V3.28125C3.7917 3.54 3.5957 3.75 3.3542 3.75Z" fill="#48485E"/>
<path d="M10.6458 3.75C10.4043 3.75 10.2083 3.54 10.2083 3.28125V0.46875C10.2083 0.209999 10.4043 0 10.6458 0C10.8873 0 11.0833 0.209999 11.0833 0.46875V3.28125C11.0833 3.54 10.8873 3.75 10.6458 3.75Z" fill="#48485E"/>
</g>
<defs>
<clipPath id="clip0">
<rect width="14" height="15" fill="white"/>
</clipPath>
</defs>
</svg>
