<svg width="176" height="32" viewBox="0 0 176 32" fill="none" xmlns="http://www.w3.org/2000/svg">
<path fill-rule="evenodd" clip-rule="evenodd" d="M159.777 26.2221L164.708 31.2196L175.411 20.5112L164.838 9.93347L159.617 14.7653L165.777 20.5319L159.777 26.2221ZM161.408 14.8002L167.137 20.5319L161.382 26.0277L164.719 29.4519L173.655 20.5112L164.805 11.6564L161.408 14.8002Z" fill="url(#paint0_linear)"/>
<path fill-rule="evenodd" clip-rule="evenodd" d="M151.103 25.9961L156.312 31.2197L167.264 20.5113L156.445 9.93356L151.103 14.7654L156.98 20.5113L151.103 25.9961ZM152.915 14.8006L158.777 20.5322L152.888 26.0281L156.323 29.4723L165.488 20.5113L156.412 11.6378L152.915 14.8006Z" fill="url(#paint1_linear)"/>
<path d="M13.7083 28.6511C13.7083 29.5025 13.7934 30.652 13.8785 31.1203H17.71C17.6249 30.3966 17.4972 28.9491 17.4972 27.3314V9.22398H13.4954V22.989C13.4954 26.0968 11.8777 28.2254 8.64216 28.2254C5.27896 28.2254 4.00179 25.7562 4.00179 22.9464V9.22398H0V23.5424C0 28.1828 2.89491 31.7589 7.663 31.7589C10.047 31.7589 12.6014 30.7797 13.7083 28.6511Z" fill="white"/>
<path d="M25.8086 31.1203V9.22398H21.8495V31.1203H25.8086ZM20.9555 2.89491C20.9555 4.47008 22.2326 5.74725 23.8078 5.74725C25.4255 5.74725 26.7027 4.47008 26.7027 2.89491C26.7027 1.27717 25.4255 0 23.8078 0C22.2326 0 20.9555 1.27717 20.9555 2.89491Z" fill="white"/>
<path fill-rule="evenodd" clip-rule="evenodd" d="M40.6422 29.1476V31.5317H34.3841V0.709381H40.7274V12.3742C41.6214 11.0544 43.9628 9.86241 46.8578 9.86241C52.9882 9.86241 56.6919 14.5454 56.6919 20.8886C56.6919 27.3596 52.5199 32 46.6023 32C43.7926 32 41.6214 30.7654 40.6422 29.1476ZM45.4529 26.2101C47.9646 26.2101 50.221 24.4647 50.221 20.9312C50.221 17.3551 47.9646 15.6948 45.4529 15.6948C42.9411 15.6948 40.6422 17.3551 40.6422 20.9312C40.6422 24.4221 42.9411 26.2101 45.4529 26.2101ZM132.684 3.90245H138.482V10.0879H142.617V15.7615H138.482V23.696C138.482 25.4451 139.42 25.9143 140.827 25.9143C141.509 25.9143 142.148 25.7863 142.532 25.701V31.076C142.276 31.204 141.21 31.6732 139.164 31.6732C134.773 31.6732 132.087 29.071 132.087 24.8478V15.7615H128.335V10.0879H129.401C131.618 10.0879 132.684 8.5949 132.684 6.6326V3.90245ZM65.727 20.6673C65.727 24.208 68.0718 25.957 70.5019 25.957C72.9747 25.957 75.2769 24.2506 75.2769 20.6673C75.2769 17.084 72.9747 15.4203 70.5019 15.4203C68.0718 15.4203 65.727 17.084 65.727 20.6673ZM59.2466 20.6673C59.2466 14.0979 64.1921 9.44807 70.5019 9.44807C76.8544 9.44807 81.7572 14.0979 81.7572 20.6673C81.7572 27.2367 76.8544 31.9292 70.5019 31.9292C64.1921 31.9292 59.2466 27.2367 59.2466 20.6673ZM90.8032 20.6673C90.8032 24.208 93.148 25.957 95.5781 25.957C98.0509 25.957 100.353 24.2506 100.353 20.6673C100.353 17.084 98.0509 15.4203 95.5781 15.4203C93.148 15.4203 90.8032 17.084 90.8032 20.6673ZM84.3228 20.6673C84.3228 14.0979 89.2683 9.44807 95.5781 9.44807C101.931 9.44807 106.833 14.0979 106.833 20.6673C106.833 27.2367 101.931 31.9292 95.5781 31.9292C89.2683 31.9292 84.3228 27.2367 84.3228 20.6673ZM108.831 25.2744C109.001 27.6206 111.133 31.9292 117.784 31.9292C123.454 31.9292 126.225 28.3885 126.225 24.7625C126.225 21.6484 124.093 19.0036 119.702 18.1078L116.888 17.5532C115.95 17.3826 115.226 16.8707 115.226 15.9748C115.226 14.8657 116.291 14.1405 117.528 14.1405C119.489 14.1405 120.384 15.335 120.555 16.7427L125.927 15.7615C125.714 13.2873 123.582 9.44807 117.443 9.44807C112.71 9.44807 109.3 12.6048 109.3 16.4867C109.3 19.4728 111.09 22.0324 115.609 23.0135L118.039 23.5681C119.617 23.9093 120.128 24.5492 120.128 25.3171C120.128 26.2556 119.318 27.1514 117.656 27.1514C115.439 27.1514 114.416 25.7437 114.33 24.2933L108.831 25.2744Z" fill="white"/>
<defs>
<linearGradient id="paint0_linear" x1="162.212" y1="26.0311" x2="173.108" y2="15.635" gradientUnits="userSpaceOnUse">
<stop stop-color="#0194FF"/>
<stop offset="1" stop-color="#01EADA"/>
</linearGradient>
<linearGradient id="paint1_linear" x1="153.246" y1="26.5265" x2="161.103" y2="14.5991" gradientUnits="userSpaceOnUse">
<stop stop-color="#721EFF"/>
<stop offset="1" stop-color="#206BFF"/>
<stop offset="1" stop-color="#206BFF"/>
</linearGradient>
</defs>
</svg>
