<svg width="17" height="23" viewBox="0 0 17 23" fill="none" xmlns="http://www.w3.org/2000/svg">
<path d="M7.69944 2.46104C8.07844 1.7661 9.07629 1.7661 9.45529 2.46104L10.9576 5.2157C11.1014 5.47943 11.3562 5.66453 11.6515 5.71982L14.7355 6.29736C15.5136 6.44306 15.8219 7.39208 15.2781 7.96728L13.1225 10.2473C12.9162 10.4656 12.8188 10.7651 12.8575 11.063L13.2613 14.1746C13.3631 14.9596 12.5558 15.5461 11.8407 15.2066L9.0062 13.8611C8.73482 13.7323 8.41991 13.7323 8.14854 13.8611L5.314 15.2066C4.59891 15.5461 3.79162 14.9596 3.89348 14.1746L4.29724 11.063C4.3359 10.7651 4.23858 10.4656 4.03221 10.2473L1.87661 7.96728C1.3328 7.39208 1.64115 6.44306 2.4192 6.29736L5.50327 5.71982C5.79854 5.66453 6.05331 5.47943 6.19713 5.2157L7.69944 2.46104Z" fill="white"/>
<rect opacity="0.7" x="2.01733" y="20.7499" width="12.95" height="1.85" rx="0.925" fill="white"/>
</svg>
